<?xml version="1.0" standalone="no"?>
<!DOCTYPE svg PUBLIC "-//W3C//DTD SVG 1.0//EN" "http://www.w3.org/TR/2001/REC-SVG-20010904/DTD/svg10.dtd">
<svg xmlns="http://www.w3.org/2000/svg" xmlns:xlink="http://www.w3.org/1999/xlink" id="body_1" width="48" height="46">

<defs>
    <linearGradient transform="matrix(1 0 0 1 0 0)"  id="1" x1="0.083" y1="0.946" x2="0.909" y2="0.055">
        <stop stop-color="#FFDD55" offset="0%"/>
        <stop stop-color="#C837AB" offset="100%"/>
    </linearGradient>
    <linearGradient transform="matrix(1 0 0 1 0 0)"  id="228" x1="0.151" y1="0.872" x2="0.848" y2="0.129">
        <stop stop-color="#FFDD55" offset="0%"/>
        <stop stop-color="#C837AB" offset="100%"/>
    </linearGradient>
    <linearGradient transform="matrix(1 0 0 1 0 0)"  id="457" x1="0.083" y1="0.95" x2="0.919" y2="0.051">
        <stop stop-color="#FFDD55" offset="0%"/>
        <stop stop-color="#C837AB" offset="100%"/>
    </linearGradient>
</defs>

<g transform="matrix(1.0087212 0 0 1.0087212 -0 0.008721415)">
    <path transform="matrix(1 0 0 1 -91.895 -90.989)"  d="M114.133 100.679C 102.142006 100.688 101 100.907 101 114.779C 101 128.494 101.409 128.885 115.742 128.885C 123.603 128.885 129.998 129.76799 130.379 121.731995C 131.473 99.022 129.513 100.66 114.133 100.679zM115.75101 123.622C 112.49871 123.76881 109.428635 122.117325 107.75863 119.322685C 106.088615 116.528046 106.088615 113.04196 107.75863 110.24732C 109.428635 107.45268 112.49871 105.8012 115.75101 105.948C 118.99787 105.80979 122.05904 107.463234 123.72368 110.254326C 125.38833 113.04542 125.38833 116.52458 123.72368 119.315674C 122.05903 122.106766 118.99787 123.7602 115.75101 123.621994zM125.351006 107.668C 124.22197 107.617714 123.3424 106.67037 123.375916 105.54071C 123.40943 104.41106 124.34362 103.517525 125.473656 103.53427C 126.60368 103.55102 127.51098 104.47184 127.51101 105.602C 127.48207 106.766464 126.51864 107.68925 125.354 107.668z" stroke="none" fill="url(#1)" />
    <path transform="matrix(1 0 0 1 -175.574 -175.2)"  d="M199.437 193C 191.5 193 191.509 204.991 199.437 204.991C 207.36499 204.991 207.364 193 199.437 193z" stroke="none" fill="url(#228)" />
    <path transform="matrix(1 0 0 1 1.488 0.831)"  d="M46.056 9.531C 45.592 3.592 41.931 0.163 37.1 -0.531C 36 -0.698 35.774998 -0.744 30.099998 -0.753C 9.994 -0.745 5.583 -1.643 1.616 2.471C -2.11 6.343 -1.35 10.457 -1.35 22.956C -1.35 33.333 -3.157 43.738 6.315 46.184C 9.271 46.943996 35.5 46.943996 38.455997 46.184C 42.404 45.164997 45.610996 41.968 46.055996 36.391C 46.111 35.6 46.111 10.318 46.056 9.531zM38.966 34.436C 36.334 41.2 29.244 40.477 22.366 40.477C 15.238999 40.477 8.370999 41.116 5.765999 34.436C 4.7 31.7 4.85 27.468 4.85 22.965C 4.85 17.832 4.692 14.246 5.7679996 11.495C 8.368 4.815 15.193 5.454 22.368 5.454C 29.041 5.454 33.582 5.037 36.946 8.391C 40.264 11.708 39.884 16.128 39.884 22.965C 39.883 28.126 40.041 31.656 38.966 34.436z" stroke="none" fill="url(#457)" />
</g>
</svg>